<?xml version="1.0" encoding="UTF-8" standalone="no"?>
<svg width="60px" height="62px" viewBox="0 0 60 62" version="1.1" xmlns="http://www.w3.org/2000/svg" xmlns:xlink="http://www.w3.org/1999/xlink" xmlns:sketch="http://www.bohemiancoding.com/sketch/ns">
    <!-- Generator: Sketch 3.0.3 (7891) - http://www.bohemiancoding.com/sketch -->
    <title>Group</title>
    <desc>Created with Sketch.</desc>
    <defs></defs>
    <g id="Page-1" stroke="none" stroke-width="1" fill="none" fill-rule="evenodd" sketch:type="MSPage">
        <g id="Group" sketch:type="MSLayerGroup">
            <g sketch:type="MSShapeGroup">
                <path d="M14,27.9978711 L14,33.9957423 C14,36.2058157 15.7867356,37.9977024 18,37.9999978 L18,22 L14,22 L14,27.9978711 Z" id="Rectangle-24" fill="#FF8052"></path>
                <path d="M42,37.9999978 C44.2095333,37.9977033 46,36.2095507 46,33.9957423 L46,27.9978711 L46,22 L42,22 L42,37.9999979 Z" id="Rectangle-22" fill="#FF8052"></path>
                <path d="M21.5384615,10.2528705 C16.0917747,11.3890793 12,16.2195861 12,21.9982973 L12,29.9933381 L12,30 C5.372583,30 0,24.627417 0,18 C0,11.372583 5.372583,6 12,6 C12.425967,6 12.8467502,6.02219455 13.2612562,6.06549032 C15.3270189,2.44209407 19.2248096,0 23.6929281,0 L36.6147642,0 C41.074154,0 44.9625624,2.43035944 47.0314802,6.03851815 L47.0314802,6.03851815 C47.3509563,6.01300281 47.6739597,6 48,6 C54.627417,6 60,11.372583 60,18 C60,24.627417 54.627417,30 48,30 L47.9999982,29.9999996 C47.9999994,29.9977792 48,29.9955587 48,29.9933381 L48,22.0066619 C48,16.3289251 44.0630187,11.5716531 38.7692308,10.3210968 L38.7692308,23.56 L21.5384615,23.56 L21.5384615,10.2528705 Z" id="Oval-5" fill="#FF8052"></path>
                <path d="M60,42 C60,53.045695 51.045695,62 40,62 C28.954305,62 20,53.045695 20,42 L40,42 L40,42 C40,45.3137085 42.6862915,48 46,48 C49.3137085,48 52,45.3137085 52,42 C52,39.790861 53.790861,38 56,38 C58.209139,38 60,39.790861 60,42 Z M20,20 L20,42 L40,42 L40,20 L20,20 Z M56,42 C57.1045695,42 58,41.5522847 58,41 C58,40.4477153 57.1045695,40 56,40 C54.8954305,40 54,40.4477153 54,41 C54,41.5522847 54.8954305,42 56,42 Z M28,38 L28,40 L40,40 L40,38 L28,38 Z M20,34 L20,36 L26,36 L26,34 L20,34 Z M20,30 L20,32 L32,32 L32,30 L20,30 Z" id="Oval-10" fill="#FF8052"></path>
                <path d="M28,18 L28,22.00077 C28,24.2075324 26.2094838,26 24.00077,26 L11.99923,26 C9.79246765,26 8,24.2094838 8,22.00077 L8,9.99922997 C8,7.79246765 9.79051625,6 11.99923,6 L24.00077,6 C26.2075324,6 28,7.79051625 28,9.99922997 L28,14 L32,14 L32,9.99922997 C32,7.79246765 33.7905162,6 35.99923,6 L48.00077,6 C50.2075324,6 52,7.79051625 52,9.99922997 L52,22.00077 C52,24.2075324 50.2094838,26 48.00077,26 L35.99923,26 C33.7924676,26 32,24.2094838 32,22.00077 L32,18 L28,18 Z" id="Rectangle-8" fill="#4A4A4A"></path>
                <rect id="Rectangle-9" fill="#CFF0FF" x="36" y="10" width="12" height="12" rx="2"></rect>
                <rect id="Rectangle-10" fill="#CFF0FF" x="12" y="10" width="12" height="12" rx="2"></rect>
            </g>
            <path d="M20,16 C20,14.8954305 19.1045695,14 18,14 C16.8954305,14 16,14.8954305 16,16 L20,16 Z" id="Oval-12" fill="#4990E2" sketch:type="MSShapeGroup"></path>
            <path d="M22,16 C22,18.209139 20.209139,20 18,20 C15.790861,20 14,18.209139 14,16 L16,16 C16,17.1045695 16.8954305,18 18,18 C19.1045695,18 20,17.1045695 20,16 L22,16 Z" id="Oval-16" fill="#98C8FF" sketch:type="MSShapeGroup"></path>
            <path d="M44,16 C44,14.8954305 43.1045695,14 42,14 C40.8954305,14 40,14.8954305 40,16 L44,16 Z" id="Oval-13" fill="#4990E2" sketch:type="MSShapeGroup"></path>
            <path d="M46,16 C46,18.209139 44.209139,20 42,20 C39.790861,20 38,18.209139 38,16 L40,16 C40,17.1045695 40.8954305,18 42,18 C43.1045695,18 44,17.1045695 44,16 L46,16 Z" id="Oval-17" fill="#98C8FF" sketch:type="MSShapeGroup"></path>
        </g>
    </g>
</svg>